<svg width="64" height="64" viewBox="0 0 64 64" fill="none" xmlns="http://www.w3.org/2000/svg">
<g filter="url(#filter0_dd)">
<path d="M46.6965 36.9239C45.6468 39.4069 44.0051 41.5948 41.9147 43.2965C39.8243 44.9981 37.349 46.1618 34.7053 46.6855C32.0614 47.2093 29.3297 47.0773 26.7487 46.301C24.1677 45.5247 21.816 44.1279 19.8994 42.2326C17.9828 40.3372 16.5595 38.0012 15.7541 35.4285C14.9486 32.8559 14.7855 30.1251 15.2788 27.4748C15.7723 24.8245 16.9072 22.3355 18.5844 20.2253C20.2617 18.1151 22.4302 16.448 24.9005 15.3698" stroke="#FFEAA7" stroke-width="3" stroke-linecap="round" stroke-linejoin="round"/>
<path d="M48 30.5038C48 28.3365 47.5733 26.1905 46.744 24.1881C45.9148 22.1858 44.6995 20.3664 43.1674 18.8339C41.6353 17.3014 39.8163 16.0857 37.8144 15.2563C35.8127 14.4269 33.6671 14 31.5004 14V30.5038H48Z" stroke="#FFEAA7" stroke-width="3" stroke-linecap="round" stroke-linejoin="round"/>
</g>
<defs>
<filter id="filter0_dd" x="-2.5" y="0.5" width="68" height="68" filterUnits="userSpaceOnUse" color-interpolation-filters="sRGB">
<feFlood flood-opacity="0" result="BackgroundImageFix"/>
<feColorMatrix in="SourceAlpha" type="matrix" values="0 0 0 0 0 0 0 0 0 0 0 0 0 0 0 0 0 0 127 0"/>
<feOffset dy="4"/>
<feGaussianBlur stdDeviation="8"/>
<feColorMatrix type="matrix" values="0 0 0 0 0.14902 0 0 0 0 0.196078 0 0 0 0 0.219608 0 0 0 0.08 0"/>
<feBlend mode="multiply" in2="BackgroundImageFix" result="effect1_dropShadow"/>
<feColorMatrix in="SourceAlpha" type="matrix" values="0 0 0 0 0 0 0 0 0 0 0 0 0 0 0 0 0 0 127 0"/>
<feOffset dy="4"/>
<feGaussianBlur stdDeviation="3"/>
<feColorMatrix type="matrix" values="0 0 0 0 0.14902 0 0 0 0 0.196078 0 0 0 0 0.219608 0 0 0 0.16 0"/>
<feBlend mode="multiply" in2="effect1_dropShadow" result="effect2_dropShadow"/>
<feBlend mode="normal" in="SourceGraphic" in2="effect2_dropShadow" result="shape"/>
</filter>
</defs>
</svg>
